<svg xmlns="http://www.w3.org/2000/svg"
    xmlns:xlink="http://www.w3.org/1999/xlink" viewBox="0 0 100 125" version="1.1" x="0px" y="0px">
    <g stroke="none" stroke-width="1" fill="white" fill-rule="evenodd">
        <g fill="#FFFFFF">
            <path d="M40.1910618,99.3773468 L31.7686962,84.7893818 C31.5416054,84.396049 31.5614999,83.9278951 31.7802597,83.5645064 L40.2026252,68.9765414 C40.429716,68.5832085 40.8450965,68.3663607 41.2691802,68.3741179 L58.1139113,68.3741179 C58.5680929,68.3741179 58.9635788,68.6254239 59.1689028,68.9965698 L67.5912683,83.5845348 C67.8183591,83.9778677 67.7984647,84.4460216 67.5797049,84.8094103 L59.1573394,99.3973753 C58.9302485,99.7907081 58.5148681,100.007556 58.0907844,99.9997988 L41.2460533,99.9997988 C40.7918717,99.9997988 40.3963857,99.7484927 40.1910618,99.3773468 L40.1910618,99.3773468 Z M41.9416721,97.5901048 L41.9416721,97.5901048 L34.2033618,84.1869583 L41.9416721,70.7838119 L57.4182925,70.7838119 L65.1566028,84.1869583 L57.4182925,97.5901048 L41.9416721,97.5901048 Z M59.1685005,0.622653164 L67.590866,15.2106182 C67.8179568,15.603951 67.7980623,16.0721049 67.5793025,16.4354936 L59.156937,31.0234586 C58.9298462,31.4167915 58.5144658,31.6336393 58.090382,31.6258821 L41.245651,31.6258821 C40.7914693,31.6258821 40.3959834,31.3745761 40.1906594,31.0034302 L31.7682939,16.4154652 C31.5412031,16.0221323 31.5610976,15.5539784 31.7798573,15.1905897 L40.2022229,0.602624677 C40.4293137,0.209291852 40.8446941,-0.00755597931 41.2687779,0.000201179617 L58.1135089,0.000201179618 C58.5676905,0.000201179618 58.9631765,0.251507266 59.1685005,0.622653164 L59.1685005,0.622653164 Z M57.4178902,2.40989517 L41.9412697,2.40989517 L34.2029595,15.8130417 L41.9412697,29.2161881 L57.4178902,29.2161881 L65.1562004,15.8130417 L57.4178902,2.40989517 Z M97.1861775,33.5287986 L88.763812,48.1167636 C88.5367212,48.5100964 88.1213408,48.7269442 87.697257,48.7191871 L70.8525259,48.7191871 C70.3983443,48.7191871 70.0028584,48.467881 69.7975344,48.0967351 L61.3751689,33.5087701 C61.1480781,33.1154373 61.1679725,32.6472834 61.3867323,32.2838946 L69.8090978,17.6959296 C70.0361887,17.3025968 70.4515691,17.085749 70.8756529,17.0935061 L87.7203839,17.0935061 C88.1745655,17.0935061 88.5700515,17.3448122 88.7753754,17.7159581 L97.197741,32.3039231 C97.4248318,32.6972559 97.4049373,33.1654098 97.1861775,33.5287986 L97.1861775,33.5287986 Z M94.7630754,32.9063466 L87.0247652,19.5032001 L71.5481447,19.5032001 L63.8098345,32.9063466 L71.5481447,46.3094931 L87.0247652,46.3094931 L94.7630754,32.9063466 L94.7630754,32.9063466 Z M2.1733847,66.4712014 L10.5957502,51.8832364 C10.822841,51.4899036 11.2382215,51.2730558 11.6623052,51.2808129 L28.5070363,51.2808129 C28.9612179,51.2808129 29.3567038,51.532119 29.5620278,51.9032649 L37.9843933,66.4912299 C38.2114842,66.8845627 38.1915897,67.3527166 37.9728299,67.7161054 L29.5504644,82.3040704 C29.3233736,82.6974032 28.9079931,82.914251 28.4839094,82.9064939 L11.6391783,82.9064939 C11.1849967,82.9064939 10.7895108,82.6551878 10.5841868,82.2840419 L2.16182125,67.6960769 C1.93473044,67.3027441 1.95462492,66.8345902 2.1733847,66.4712014 L2.1733847,66.4712014 Z M4.59648683,67.0936534 L12.3347971,80.4967999 L27.8114175,80.4967999 L35.5497278,67.0936534 L27.8114175,53.6905069 L12.3347971,53.6905069 L4.59648683,67.0936534 L4.59648683,67.0936534 Z M11.662104,17.0938546 L28.5068351,17.0938546 C28.9610167,17.0938546 29.3565027,17.3451607 29.5618266,17.7163066 L37.9841922,32.3042716 C38.211283,32.6976044 38.1913885,33.1657583 37.9726287,33.529147 L29.5502632,48.117112 C29.3231724,48.5104449 28.907792,48.7272927 28.4837082,48.7195355 L11.6389771,48.7195355 C11.1847955,48.7195355 10.7893096,48.4682294 10.5839856,48.0970835 L2.16162007,33.5091186 C1.93452926,33.1157857 1.95442374,32.6476318 2.17318352,32.2842431 L10.595549,17.6962781 C10.8226399,17.3029452 11.2380203,17.0860974 11.662104,17.0938546 L11.662104,17.0938546 Z M12.3345959,19.5035486 L4.59628565,32.9066951 L12.3345959,46.3098415 L27.8112163,46.3098415 L35.5495266,32.9066951 L27.8112163,19.5035486 L12.3345959,19.5035486 Z M87.6974582,82.9061454 L70.8527271,82.9061454 C70.3985455,82.9061454 70.0030596,82.6548393 69.7977356,82.2836934 L61.3753701,67.6957284 C61.1482792,67.3023956 61.1681737,66.8342417 61.3869335,66.470853 L69.809299,51.882888 C70.0363898,51.4895551 70.4517703,51.2727073 70.875854,51.2804645 L87.7205851,51.2804645 C88.1747667,51.2804645 88.5702526,51.5317706 88.7755766,51.9029165 L97.1979421,66.4908814 C97.425033,66.8842143 97.4051385,67.3523682 97.1863787,67.7157569 L88.7640132,82.3037219 C88.5369224,82.6970548 88.1215419,82.9139026 87.6974582,82.9061454 L87.6974582,82.9061454 Z M87.0249663,80.4964514 L94.7632766,67.0933049 L87.0249663,53.6901585 L71.5483459,53.6901585 L63.8100356,67.0933049 L71.5483459,80.4964514 L87.0249663,80.4964514 Z M40.1910618,65.3404192 L31.7686962,50.7524542 C31.5416054,50.3591214 31.5614999,49.8909675 31.7802597,49.5275787 L40.2026252,34.9396137 C40.429716,34.5462809 40.8450965,34.3294331 41.2691802,34.3371902 L58.1139113,34.3371902 C58.5680929,34.3371902 58.9635788,34.5884963 59.1689028,34.9596422 L67.5912683,49.5476072 C67.8183591,49.94094 67.7984647,50.409094 67.5797049,50.7724827 L59.1573394,65.3604477 C58.9302485,65.7537805 58.5148681,65.9706284 58.0907844,65.9628712 L41.2460533,65.9628712 C40.7918717,65.9628712 40.3963857,65.7115651 40.1910618,65.3404192 L40.1910618,65.3404192 Z M41.9416721,63.5531772 L57.4182925,63.5531772 L65.1566028,50.1500307 L57.4182925,36.7468842 L41.9416721,36.7468842 L34.2033618,50.1500307 L41.9416721,63.5531772 L41.9416721,63.5531772 Z M43.8054016,41.0701801 C44.0107256,40.6990342 44.4062115,40.4477282 44.8603931,40.4477282 L54.4760422,40.4477282 C54.900126,40.439971 55.3155064,40.6568188 55.5425972,41.0501517 L60.3619852,49.3975765 C60.589076,49.7909093 60.5691815,50.2590632 60.3504217,50.622452 L55.5425972,58.9498483 C55.3155064,59.3431812 54.900126,59.560029 54.4760422,59.5522718 L44.8603931,59.5522718 C44.4062115,59.5522718 44.0107256,59.3009658 43.8054016,58.9298199 L38.997577,50.6024235 C38.7704862,50.2090907 38.7903807,49.7409368 39.0091405,49.377548 L43.8054016,41.0701801 L43.8054016,41.0701801 Z M45.5560119,42.8574221 L41.4322426,50 L45.5560119,57.1425779 L53.8035504,57.1425779 L57.9273196,50 L53.8035504,42.8574221 L45.5560119,42.8574221 L45.5560119,42.8574221 Z"/>
        </g>
    </g>
</svg>